<svg width="108" height="74" viewBox="0 0 108 74" fill="none" xmlns="http://www.w3.org/2000/svg">
<path d="M94.5348 0H13.154C5.90119 0 0 5.90119 0 13.154V59.9544C0 67.2072 5.90119 73.1083 13.154 73.1083H94.5348C101.788 73.1083 107.689 67.2072 107.689 59.9544V13.1554C107.69 5.90119 101.789 0 94.5348 0ZM88.1073 8.58146L53.8444 30.6558L19.5815 8.58146H88.1073ZM94.5348 64.5283H13.154C10.6324 64.5283 8.58146 62.4759 8.58146 59.9558V13.3985L51.197 40.802C51.2542 40.8377 51.3157 40.8621 51.3744 40.895C51.4359 40.9293 51.4988 40.9622 51.5617 40.9936C51.8921 41.1638 52.2325 41.3011 52.5801 41.3913C52.6158 41.4013 52.6516 41.4056 52.6873 41.4141C53.0692 41.5042 53.4554 41.56 53.8415 41.56H53.8444C53.8472 41.56 53.8501 41.56 53.8501 41.56C54.2363 41.56 54.6224 41.5057 55.0043 41.4141C55.0401 41.4056 55.0758 41.4013 55.1116 41.3913C55.4591 41.3011 55.7981 41.1638 56.1299 40.9936C56.1928 40.9622 56.2558 40.9293 56.3173 40.895C56.3759 40.8621 56.4374 40.8377 56.4946 40.802L99.1102 13.3985V59.9544C99.1087 62.4759 97.0563 64.5283 94.5348 64.5283Z" fill="white"/>
</svg>
