<svg width="103" height="103" viewBox="0 0 103 103" fill="none" xmlns="http://www.w3.org/2000/svg">
<path fill-rule="evenodd" clip-rule="evenodd" d="M51.0626 0C22.8263 0 0 23.4736 0 52.5137C0 75.7271 14.6256 95.3766 34.9152 102.331C37.4519 102.854 38.3811 101.201 38.3811 99.811C38.3811 98.5936 38.2975 94.4206 38.2975 90.0726C24.0931 93.2032 21.1352 83.8127 21.1352 83.8127C18.8524 77.7266 15.4701 76.1624 15.4701 76.1624C10.821 72.9454 15.8088 72.9454 15.8088 72.9454C20.9658 73.2933 23.6719 78.3358 23.6719 78.3358C28.2363 86.3339 35.5914 84.0741 38.5504 82.6827C38.9727 79.2918 40.3262 76.9445 41.7634 75.6406C30.4344 74.4232 18.5148 69.9024 18.5148 49.7311C18.5148 43.9928 20.5425 39.2981 23.7555 35.6469C23.2486 34.343 21.4728 28.9515 24.2635 21.7355C24.2635 21.7355 28.575 20.3442 38.2964 27.1259C42.4586 25.9764 46.7509 25.3917 51.0626 25.3867C55.3741 25.3867 59.7692 25.996 63.8278 27.1259C73.5503 20.3442 77.8618 21.7355 77.8618 21.7355C80.6525 28.9515 78.8756 34.343 78.3687 35.6469C81.6663 39.2981 83.6104 43.9928 83.6104 49.7311C83.6104 69.9024 71.6909 74.3357 60.2772 75.6406C62.1377 77.2923 63.7431 80.4218 63.7431 85.3779C63.7431 92.42 63.6595 98.0718 63.6595 99.8099C63.6595 101.201 64.5897 102.854 67.1254 102.332C87.415 95.3756 102.041 75.7271 102.041 52.5137C102.124 23.4736 79.2143 0 51.0626 0Z" fill="white"/>
</svg>
